<svg width="46" height="35" viewBox="0 0 46 35" fill="none" xmlns="http://www.w3.org/2000/svg"><path d="M1.213 11.534 7.908.994A1.74 1.74 0 0 1 9.272.128h28.27a1.61 1.61 0 0 1 1.488.992l6.323 10.539a1.86 1.86 0 0 1 0 2.108L24.647 34.224a1.613 1.613 0 0 1-2.48 0L1.213 13.766a1.736 1.736 0 0 1 0-2.232m3.967 0h8.432L9.768 4.466l-4.216 7.068zm31.866-7.068-4.34 7.068h8.555zm3.471 9.052H31.59l-5.58 14.01zm-20.21 14.01L15.1 13.518H6.296zM35.31 3.598h-9.3l4.96 7.068zm-14.383 0h-9.423l4.464 7.068zm-3.1 7.936h11.16l-5.58-7.936zm11.655 1.984H17.083l6.076 16.614 6.075-16.614z" fill="#C0965C"/></svg>