<svg width="59" height="58" viewBox="0 0 59 58" fill="none" xmlns="http://www.w3.org/2000/svg"><g clip-path="url(#a)"><path d="m50.218 5.284-8.588 8.57a2.12 2.12 0 0 1-1.882.588l-28.589-2.7-2 1.878 20.353 8.218c.373.081.705.289.942.587a2.113 2.113 0 0 1 0 3.17l-9.412 9.393a2.12 2.12 0 0 1-1.883 0l-9.882-1.526-2.47 2.583 10.235 5.048a1.65 1.65 0 0 1 1.059.94l4.706 9.98 2.47-2.466-.941-9.745a2.11 2.11 0 0 1 0-1.996l9.412-9.51a2.1 2.1 0 0 1 .823 0 2.12 2.12 0 0 1 2.824 1.291l8.353 20.43 2.117-2.349-3.53-28.53a1.99 1.99 0 0 1 .707-1.879l8.588-8.57a2.463 2.463 0 0 0-1.726-4.025 2.47 2.47 0 0 0-1.686.502zm-3.176-3.17a6.87 6.87 0 0 1 9.706-.06 6.843 6.843 0 0 1 .059 9.687l-7.883 7.867 3.412 28.647a2.34 2.34 0 0 1-.706 1.761l-5.059 5.049a2.12 2.12 0 0 1-2.46.528 2.1 2.1 0 0 1-.716-.528 3 3 0 0 1 0-.822l-8.236-20.312-6.235 6.223 1.412 9.745a2.11 2.11 0 0 1-.706 1.996l-5.294 5.4a2.12 2.12 0 0 1-3.177 0v-.704l-5.647-11.74-13.529-6.223a2.24 2.24 0 0 1-1.454-1.405 2.23 2.23 0 0 1 .278-2c.232-.055.473-.055.705 0l5.412-5.4a2.36 2.36 0 0 1 1.882 0l9.883 1.408 6.235-6.223-20.47-9.04a2.24 2.24 0 0 1-1.46-2.062 2.2 2.2 0 0 1 .165-.873v-.705l5.53-5.166a2.6 2.6 0 0 1 2 0L39.277 9.98z" fill="#C0965C"/></g><defs><clipPath id="a"><path fill="#fff" d="M.807 0h58v58h-58z"/></clipPath></defs></svg>