<svg width="57" height="54" viewBox="0 0 57 54" fill="none" xmlns="http://www.w3.org/2000/svg"><g clip-path="url(#a)"><path d="M22.275 43.458a1.21 1.21 0 0 0-.958.333 1.3 1.3 0 0 0-.405.955v2.108c0 .373.144.73.4.994.255.264.602.412.963.412a1.22 1.22 0 0 0 .926-.418 1.33 1.33 0 0 0 .323-.988v-2.108c0-.342-.131-.67-.365-.911a1.23 1.23 0 0 0-.884-.377m3.521 0c-.331 0-.649.135-.883.377a1.3 1.3 0 0 0-.366.911v2.108a1.33 1.33 0 0 0 .323.988q.178.2.42.31c.16.072.332.109.506.108.362 0 .709-.148.964-.412.256-.263.4-.62.4-.994v-2.108a1.32 1.32 0 0 0-.406-.955 1.21 1.21 0 0 0-.958-.333m-7.156 0a1.22 1.22 0 0 0-.883.377q-.175.181-.271.418a1.3 1.3 0 0 0-.095.493v2.108c0 .342.131.67.366.912.234.241.552.377.883.377.332 0 .65-.136.884-.377a1.3 1.3 0 0 0 .366-.912v-2.108c0-.342-.132-.67-.366-.911a1.23 1.23 0 0 0-.884-.377m31.692 0a1.34 1.34 0 0 0-.926.369 1.42 1.42 0 0 0-.437.919v2.108c0 .373.143.73.399.994s.602.412.964.412a1.22 1.22 0 0 0 .926-.418 1.33 1.33 0 0 0 .323-.988v-2.108a1.32 1.32 0 0 0-.366-.911 1.22 1.22 0 0 0-.884-.377m-7.156 0a1.21 1.21 0 0 0-.958.333 1.32 1.32 0 0 0-.405.955v2.108c0 .373.143.73.399.994.255.264.602.412.964.412a1.22 1.22 0 0 0 .926-.418 1.33 1.33 0 0 0 .323-.988v-2.108c0-.342-.131-.67-.366-.911a1.23 1.23 0 0 0-.883-.377m3.521 0h-.454c-.332 0-.65.135-.884.377a1.3 1.3 0 0 0-.366.911v2.108c0 .342.132.67.366.912.234.241.552.377.884.377s.649-.136.883-.377c.235-.242.366-.57.366-.912v-2.108c0-.342-.131-.67-.366-.911a1.23 1.23 0 0 0-.883-.377zM55.67 20.03a4.2 4.2 0 0 0-1.43-1.12 4.1 4.1 0 0 0-1.75-.403h-2.727L40.79 2.577a4.8 4.8 0 0 0-1.054-1.56A4.6 4.6 0 0 0 38.178 0a3.98 3.98 0 0 0-3.294 0L3.078 19.444a4.5 4.5 0 0 0-1.44 1.213 4.6 4.6 0 0 0-.831 1.716 4.45 4.45 0 0 0 0 3.397l10.677 17.922v5.622a4.7 4.7 0 0 0 .306 1.77c.214.563.535 1.076.944 1.51.375.457.846.821 1.377 1.064s1.109.36 1.69.342h36.69a4 4 0 0 0 1.74-.34 4.1 4.1 0 0 0 1.44-1.066 5.13 5.13 0 0 0 1.136-3.28V23.427a4.53 4.53 0 0 0-1.136-3.163zm-44.187 3.397v11.714l-6.36-11.714L36.815 4.451l7.724 13.822H15.8a4.4 4.4 0 0 0-1.779.465 4.6 4.6 0 0 0-1.455 1.153 4.7 4.7 0 0 0-.895 1.653 4.8 4.8 0 0 0-.187 1.883m41.12 25.887H15.8V23.427h36.69v25.887zm-17.72-5.856c-.332 0-.65.135-.884.377a1.3 1.3 0 0 0-.366.911v2.108a1.33 1.33 0 0 0 .155 1.234c.125.175.29.315.482.407.191.092.402.132.613.117.171-.054.331-.142.47-.26a1.4 1.4 0 0 0 .338-.424 1.44 1.44 0 0 0 .1-1.074v-2.108a1.3 1.3 0 0 0-.238-.806 1.25 1.25 0 0 0-.67-.482m3.635 0c-.332 0-.65.135-.884.377a1.3 1.3 0 0 0-.366.911v2.108a1.33 1.33 0 0 0 .323.988 1.22 1.22 0 0 0 .926.418 1.37 1.37 0 0 0 .682-.546c.164-.254.244-.555.227-.86v-2.108a1.42 1.42 0 0 0-.437-.92 1.34 1.34 0 0 0-.926-.368zm-7.157 0a1.21 1.21 0 0 0-.958.333 1.3 1.3 0 0 0-.405.955v2.108c0 .373.144.73.4.994.255.264.602.412.963.412.27-.104.495-.3.64-.557.145-.256.2-.556.155-.849v-2.108c0-.342-.131-.67-.365-.911a1.23 1.23 0 0 0-.884-.377zm-4.43-13.705H18.64a1.22 1.22 0 0 0-.883.377 1.32 1.32 0 0 0-.366.911v8.55c0 .343.131.67.366.912s.552.377.883.377h8.292a1.21 1.21 0 0 0 .958-.333 1.32 1.32 0 0 0 .405-.955V31.04a1.32 1.32 0 0 0-.405-.955 1.21 1.21 0 0 0-.958-.333m-1.25 8.55h-5.679v-5.856h5.68z" fill="#C0965C"/></g><defs><clipPath id="a"><path fill="#fff" d="M.807 0h56v54h-56z"/></clipPath></defs></svg>